<svg width="100" height="100" xmlns="http://www.w3.org/2000/svg">
 <defs>
  <style>.cls-1 {
        fill: #4e3629;
      }

      .cls-2 {
        fill: #48a63a;
      }

      .cls-3 {
        fill: #419433;
      }

      .cls-4 {
        fill: #46a037;
      }

      .cls-5 {
        fill: #429734;
      }

      .cls-6 {
        fill: #4da83f;
      }

      .cls-7 {
        fill: #45a437;
      }

      .cls-8 {
        fill: #41a334;
      }

      .cls-9 {
        fill: #59af49;
      }

      .cls-10 {
        fill: #53ab43;
      }

      .cls-11 {
        fill: #55ad46;
      }

      .cls-12 {
        fill: #5db04c;
      }

      .cls-13 {
        fill: #61b250;
      }

      .cls-14 {
        fill: #3f9231;
      }

      .cls-15 {
        fill: #65b453;
      }

      .cls-16 {
        fill: #b1b192;
      }

      .cls-17 {
        fill: #d6d4c0;
      }

      .cls-18 {
        fill: #c4c2a9;
      }

      .cls-19 {
        fill: #4ba73d;
      }

      .cls-20 {
        fill: #399f2c;
      }

      .cls-21 {
        fill: #50aa41;
      }

      .cls-22 {
        fill: #93795d;
      }

      .cls-23 {
        fill: #94a577;
      }

      .cls-24 {
        fill: #6ea057;
      }

      .cls-25 {
        fill: #439d35;
      }

      .cls-26 {
        fill: #439b34;
      }</style>
 </defs>
 <title>connectors</title>
 <g>
  <title>Layer 1</title>
  <g stroke="null" id="svg_39">
   <path stroke="null" id="svg_1" d="m6.44685,25.49241l0,3.42342c0,1.53806 0.14884,1.71171 1.66209,1.93498c0.44653,0 0.64499,0.19846 0.62018,0.69461s-0.19846,0.71941 -0.76903,0.6698a41.75082,41.75082 0 0 0 -6.10262,0c-0.3225,0 -0.74422,0.17365 -0.76903,-0.42173s0,-0.89307 0.62018,-0.94268a5.68089,5.68089 0 0 0 0.89307,-0.17365a1.06672,1.06672 0 0 0 0.86826,-1.04191c0.19846,-2.92727 0.12404,-5.82973 0,-8.75701a0.9923,0.9923 0 0 0 -0.59538,-0.89307a8.33528,8.33528 0 0 0 -1.6869,-0.69461c-0.22327,0 -0.47134,-0.17365 -0.44653,-0.47134a0.47134,0.47134 0 0 1 0.42173,-0.42173a30.01693,30.01693 0 0 0 4.96148,-1.24037c0.37211,-0.14884 0.3473,0.22327 0.3473,0.42173s0,0.79384 0,1.19075s0,0.44653 0.14884,0.57057s0.3473,0 0.49615,-0.19846a11.56024,11.56024 0 0 1 3.10092,-1.73652a3.96918,3.96918 0 0 1 4.96148,1.53806c0.39692,0.59538 0.64499,0.59538 1.16595,0.17365a9.92295,9.92295 0 0 1 2.48074,-1.41402a4.58937,4.58937 0 0 1 6.89645,3.79553a48.15113,48.15113 0 0 1 0,5.68089c0,0.74422 0,1.48844 0,2.23266a1.09152,1.09152 0 0 0 0.86826,1.24037l0,0a5.87935,5.87935 0 0 0 0.89307,0.22327c0.49615,0 0.76903,0.17365 0.6698,0.76903s-0.3473,0.64499 -0.84345,0.59538a45.54635,45.54635 0 0 0 -6.10262,0c-0.24807,0 -0.57057,0.12404 -0.54576,-0.29769s-0.27288,-0.89307 0.3473,-0.96749c1.66209,-0.24807 1.76132,-0.59538 1.76132,-2.48074s0,-3.96918 0,-5.95377a3.3738,3.3738 0 0 0 -4.21725,-3.0265a5.82973,5.82973 0 0 0 -0.86826,0.27288c-1.43883,0.59538 -1.48844,0.74422 -1.46364,2.28228c0,2.20786 0,4.39091 0,6.59876c0,1.81094 0,1.81094 1.76132,2.18305c0.44653,0 0.54576,0.29769 0.52096,0.71941s-0.14884,0.69461 -0.6698,0.64499a52.0955,52.0955 0 0 0 -6.22665,0c-0.3225,0 -0.69461,0 -0.69461,-0.42173s0,-0.81864 0.54576,-0.91787c1.78613,-0.3225 1.78613,-0.37211 1.83575,-2.23266s0,-3.82034 0,-5.75531a5.18474,5.18474 0 0 0 -0.19846,-1.24037a3.00169,3.00169 0 0 0 -3.89476,-2.23266l-0.6698,0.19846c-1.81094,0.6698 -1.98459,0.91787 -1.98459,2.82804l0,3.0265l-0.09923,0.02481z" class="cls-1"/>
   <path stroke="null" id="svg_2" d="m53.82894,19.48903a20.29244,20.29244 0 0 1 2.25747,-1.56287a5.28397,5.28397 0 0 1 3.91957,-0.84345a4.66379,4.66379 0 0 1 3.64669,4.0436a16.91863,16.91863 0 0 1 0.17365,2.23266c0,2.0094 0,4.0188 0,6.02819a1.09152,1.09152 0 0 0 0.94268,1.24037l0.74422,0.17365c0.76903,0.14884 0.84345,0.3225 0.6698,1.09152c0,0.3473 -0.22327,0.52096 -0.62018,0.49615a46.63788,46.63788 0 0 0 -6.44992,0c-0.49615,0 -0.69461,-0.14884 -0.69461,-0.62018s-0.12404,-0.81864 0.52096,-0.91787c1.66209,-0.27288 1.6869,-0.3225 1.66209,-2.03421a62.19211,62.19211 0 0 0 0,-6.44992a2.80323,2.80323 0 0 0 -3.22496,-2.85285a4.0188,4.0188 0 0 0 -1.43883,0.27288c-1.53806,0.54576 -1.86055,0.9923 -1.86055,2.48074l0,6.64838c0,1.41402 0,1.51325 1.51325,1.76132c0.86826,0.14884 0.94268,0.27288 0.76903,1.11633a0.47134,0.47134 0 0 1 -0.49615,0.44653l0,0a59.53772,59.53772 0 0 0 -6.64838,0c-0.27288,0 -0.52096,0 -0.54576,-0.3473s-0.17365,-0.84345 0.27288,-1.11633s0.17365,0 0.27288,0c1.63729,-0.3473 1.6869,-0.37211 1.71171,-2.05901c0,-2.48074 0,-4.96148 0,-7.56625a1.04191,1.04191 0 0 0 -0.6698,-1.09152l-1.36441,-0.57057c-0.3225,0 -0.71941,-0.19846 -0.6698,-0.6698s0.42173,-0.54576 0.79384,-0.57057a28.2308,28.2308 0 0 0 2.80323,-0.59538l1.53806,-0.47134c0.52096,-0.17365 0.76903,0 0.74422,0.57057s-0.22327,1.04191 -0.27288,1.73652z" class="cls-1"/>
   <path stroke="null" id="svg_3" d="m10.51526,77.98483a17.68766,17.68766 0 0 1 -2.15824,-1.93498c0.37211,-0.22327 0.52096,0 0.6698,0.24807l-7.7151,-22.97164c-0.12404,0.94268 -0.29769,1.91017 -0.37211,2.87766c0,0.19846 0,0.44653 -0.37211,0.47134a24.98103,24.98103 0 0 1 1.21556,-6.59876a6.30107,6.30107 0 0 0 0.49615,-1.28998c0.14884,-0.42173 0.3473,-0.37211 0.59538,0a2.48074,2.48074 0 0 1 0.42173,0.94268l7.44221,22.32664c0.14884,0.44653 0.22327,0.9923 0.81864,1.11633a0.44653,0.44653 0 0 1 0,0.42173a3.54746,3.54746 0 0 0 0,1.0171a10.98967,10.98967 0 0 1 -0.52096,3.12573c-0.04961,0 -0.02481,0.42173 -0.52096,0.24807z" class="cls-2"/>
   <path stroke="null" id="svg_4" d="m20.04129,69.62475a17.58843,17.58843 0 0 1 -3.10092,4.58937a32.39844,32.39844 0 0 0 -4.09322,0.52096a1.04191,1.04191 0 0 0 -0.86826,0.47134c-0.49615,-0.37211 -0.3473,-0.91787 -0.44653,-1.41402s0,-0.47134 0,-0.71941a7.02049,7.02049 0 0 1 0,-0.71941a12.40369,12.40369 0 0 1 0,-2.48074a12.99907,12.99907 0 0 1 0.19846,-2.18305a3.47303,3.47303 0 0 0 0,-1.24037a0.69461,0.69461 0 0 1 0.59538,-0.76903l0,0l8.70739,-1.38921c0.59538,0 0.69461,0 0.54576,0.64499a18.08458,18.08458 0 0 1 -1.28998,3.74591a5.18474,5.18474 0 0 0 -0.24807,0.94268z" class="cls-3"/>
   <path stroke="null" id="svg_5" d="m14.60847,39.68224a26.64313,26.64313 0 0 1 6.10262,9.60046a25.40276,25.40276 0 0 1 1.76132,6.89645c0,0.3473 0,0.69461 0,1.04191a0.14884,0.14884 0 0 1 -0.19846,0a9.60046,9.60046 0 0 1 -0.39692,-2.48074a38.12895,38.12895 0 0 0 -1.56287,-5.28397c-0.14884,-0.39692 -0.24807,-0.52096 -0.74422,-0.37211a37.38472,37.38472 0 0 1 -4.0436,0.74422l-3.20015,0.62018c-0.19846,0 -0.42173,0.14884 -0.54576,0c-0.17365,-1.56287 0,-3.10092 0,-4.66379a9.35238,9.35238 0 0 0 0,-2.20786c0,-1.46364 0,-2.92727 0,-4.39091a5.65608,5.65608 0 0 0 0,-1.71171a3.0265,3.0265 0 0 1 0,-0.81864c0,-0.17365 0,-0.42173 0.22327,-0.47134s0.22327,0.22327 0.3225,0.3473s0.22327,0.64499 0.52096,0.86826l0,0a8.03759,8.03759 0 0 0 1.76132,2.28228z" class="cls-4"/>
   <path stroke="null" id="svg_6" d="m22.4228,57.24586l0,0a22.64914,22.64914 0 0 1 -2.48074,12.40369c0,-0.81864 0.59538,-1.38921 0.81864,-2.13343s0.62018,-1.78613 0.84345,-2.72881c0,-0.39692 0,-0.47134 -0.39692,-0.39692l-8.85624,1.41402c-0.3225,0 -0.47134,0.14884 -0.47134,0.52096s0.14884,0.89307 0,1.28998c-0.27288,-0.29769 -0.19846,-0.6698 -0.19846,-1.0171c0,-1.95978 0.19846,-3.89476 0.14884,-5.85454a1.36441,1.36441 0 0 1 0,-0.62018a0.29769,0.29769 0 0 1 0.27288,-0.17365a44.40521,44.40521 0 0 0 6.27627,-0.86826c0.91787,0 1.81094,-0.22327 2.704,-0.39692s1.11633,-0.29769 1.06672,-1.09152a0.52096,0.52096 0 0 1 0.27288,-0.3473z" class="cls-5"/>
   <path stroke="null" id="svg_7" d="m11.75563,69.87282a14.36347,14.36347 0 0 0 0,2.48074c-0.17365,0 0,0.3473 -0.22327,0.49615l0,0c-0.19846,0.22327 -0.39692,0.37211 -0.57057,0a7.7399,7.7399 0 0 1 -0.37211,-0.89307l-7.44221,-22.5003l0,0c-0.14884,-0.29769 -0.12404,-0.84345 -0.49615,-0.84345s-0.29769,0.54576 -0.44653,0.84345s0,0.44653 -0.3473,0.59538a10.4191,10.4191 0 0 1 0.81864,-2.48074c0.3473,-0.42173 0.39692,-0.9923 0.69461,-1.43883s0,-0.44653 0.39692,-0.42173s0.39692,0.62018 0.49615,0.96749l6.67319,20.01956a18.05977,18.05977 0 0 1 0.81864,3.17534z" class="cls-6"/>
   <path stroke="null" id="svg_8" d="m0.81557,56.25357a10.59275,10.59275 0 0 1 0.54576,-3.32419l7.91355,23.64143c-0.44653,0 -0.54576,-0.52096 -0.91787,-0.47134a12.40369,12.40369 0 0 1 -2.0094,-2.10863c0.37211,-0.14884 0.19846,-0.39692 0,-0.64499c-0.64499,-1.88536 -1.26518,-3.77072 -1.91017,-5.63128c-1.26518,-3.62188 -2.48074,-7.26856 -3.67149,-10.89044a1.09152,1.09152 0 0 1 0.04961,-0.57057z" class="cls-7"/>
   <path stroke="null" id="svg_9" d="m0.81557,56.25357c0.94268,2.08382 1.51325,4.29168 2.25747,6.44992q1.81094,5.28397 3.57226,10.56794c0,0.24807 0.27288,0.49615 0.14884,0.81864l-0.44653,-0.17365l-0.22327,-0.27288a1.48844,1.48844 0 0 0 -0.47134,-0.57057a23.39336,23.39336 0 0 1 -4.53975,-8.95546a15.35577,15.35577 0 0 1 -0.64499,-3.52265a23.91432,23.91432 0 0 0 0,-3.77072l0,-0.14884l0.3473,-0.42173z" class="cls-8"/>
   <path stroke="null" id="svg_10" d="m11.75563,43.35373c0.22327,0.19846 0.12404,0.47134 0.12404,0.71941l0,6.3755a0.71941,0.71941 0 0 1 0.19846,0.57057c0,1.95978 0,3.89476 0,5.85454c-0.19846,0.3473 -0.39692,0.24807 -0.57057,0a2.65439,2.65439 0 0 1 -0.3225,-0.76903c-1.58767,-4.7134 -3.12573,-9.42681 -4.73821,-14.14021a0.89307,0.89307 0 0 1 0,-0.79384a0.39692,0.39692 0 0 1 0.24807,-0.42173c0.81864,-0.86826 1.04191,-0.81864 1.43883,0.3225l3.44823,10.34468c0,-1.11633 0,-2.10863 0,-3.10092c0,-1.38921 0,-2.77843 0,-4.14283c0,-0.3225 -0.04961,-0.62018 0.17365,-0.81864z" class="cls-9"/>
   <path stroke="null" id="svg_11" d="m12.02851,60.0491c0,2.20786 0,4.39091 -0.14884,6.59876c-0.3473,0 -0.29769,-0.3225 -0.3225,-0.52096a4.96148,4.96148 0 0 0 -0.3225,-1.43883l-6.62357,-19.84591a4.24206,4.24206 0 0 1 -0.22327,-0.74422a0.24807,0.24807 0 0 1 0,-0.22327c0.17365,-0.19846 0.17365,-0.52096 0.39692,-0.69461s0.52096,0 0.71941,0.19846a2.10863,2.10863 0 0 1 0.27288,0.64499c1.86055,5.7057 3.84514,11.36178 5.73051,17.06748a2.60478,2.60478 0 0 1 0.14884,0.59538a5.63128,5.63128 0 0 1 0,-2.23266a0.19846,0.19846 0 0 1 0.19846,0a0.44653,0.44653 0 0 1 0.17365,0.59538z" class="cls-10"/>
   <path stroke="null" id="svg_12" d="m11.87966,59.47853l0,2.80323l-0.12404,0s0,-0.12404 0,-0.19846a77.89518,77.89518 0 0 0 -3.74591,-12.40369c-0.64499,-2.05901 -1.38921,-4.11803 -2.05901,-6.17704c-0.14884,-0.44653 -0.3225,-0.69461 -0.81864,-0.62018a5.28397,5.28397 0 0 1 1.26518,-1.6869a3.6963,3.6963 0 0 0 0.42173,1.46364l4.53975,13.64406c0,0.27288 0,0.69461 0.49615,0.76903a3.49784,3.49784 0 0 1 0.02481,2.40632z" class="cls-11"/>
   <path stroke="null" id="svg_13" d="m11.75563,48.41444l0,3.39861a0.49615,0.49615 0 0 1 -0.42173,-0.39692l-3.42342,-10.19583c-0.37211,-1.14114 -0.37211,-1.14114 -1.31479,-0.54576a5.23436,5.23436 0 0 1 0.96749,-1.11633c0.84345,-0.84345 1.09152,-0.79384 1.46364,0.3473c0.64499,1.93498 1.3396,3.86995 2.0094,5.80493a17.21632,17.21632 0 0 0 0.71941,2.704z" class="cls-12"/>
   <path stroke="null" id="svg_14" d="m11.75563,48.41444a1.91017,1.91017 0 0 1 -0.54576,-1.43883a2.10863,2.10863 0 0 0 -0.19846,-0.86826l-2.03421,-5.92896c-0.39692,-1.16595 -0.39692,-1.16595 -1.3396,-0.59538a7.76471,7.76471 0 0 1 1.6869,-1.6869c0.44653,-0.27288 0.69461,-0.22327 0.91787,0.3225c0.54576,1.28998 0.71941,2.6792 1.28998,3.94437c0.27288,0.59538 0,1.28998 0.22327,1.91017l0,4.34129z" class="cls-13"/>
   <path stroke="null" id="svg_15" d="m5.13205,42.78316c0.62018,-0.44653 0.62018,-0.44653 0.89307,0.3225c1.83575,5.45762 3.64669,10.91525 5.50724,16.34806a9.92295,9.92295 0 0 1 0.22327,2.48074c-0.76903,-1.83575 -1.31479,-3.77072 -1.95978,-5.68089c-1.41402,-4.11803 -2.80323,-8.26086 -4.19245,-12.40369c0,-0.39692 -0.22327,-0.79384 -0.76903,-0.74422l0.29769,-0.3225z" class="cls-10"/>
   <path stroke="null" id="svg_16" d="m12.02851,75.25602c0,-0.44653 0,-0.57057 0.57057,-0.59538c1.26518,-0.12404 2.48074,-0.37211 3.77072,-0.59538c0.24807,0 0.52096,-0.17365 0.59538,0.22327a18.03497,18.03497 0 0 1 -3.52265,3.349a0.27288,0.27288 0 0 1 -0.29769,0a1.95978,1.95978 0 0 1 -0.54576,-0.47134c-0.3473,-0.62018 -0.84345,-1.16595 -0.57057,-1.91017z" class="cls-14"/>
   <path stroke="null" id="svg_17" d="m11.75563,44.04834c-0.3225,-0.37211 0,-0.86826 -0.19846,-1.28998c-0.3225,-0.81864 -0.57057,-1.6869 -0.84345,-2.48074s-0.37211,-1.28998 -0.59538,-1.91017s-0.3473,-0.62018 -0.79384,-0.47134l0.91787,-0.84345a2.75362,2.75362 0 0 0 0.9923,-2.18305c0.29769,0 0.29769,0.3473 0.37211,0.52096s-0.14884,0.64499 0,0.96749l0,0.84345c0.17365,0.54576 0,1.14114 0,1.6869l0,5.18474l0.14884,-0.02481z" class="cls-15"/>
   <path stroke="null" id="svg_18" d="m12.02851,75.25602a4.81263,4.81263 0 0 0 0.71941,1.93498c-0.29769,1.31479 -0.84345,2.48074 -1.26518,3.89476c-0.37211,-0.24807 -0.19846,-0.62018 -0.42173,-0.81864a14.33867,14.33867 0 0 0 -0.57057,-2.25747c0.29769,0 0.29769,-0.27288 0.3225,-0.47134a13.66887,13.66887 0 0 0 0.49615,-3.15054c0.14884,-0.22327 0,-0.47134 0,-0.69461s0.24807,0 0.3225,0a12.40369,12.40369 0 0 0 0.39692,1.56287z" class="cls-16"/>
   <path stroke="null" id="svg_19" d="m13.19445,77.56311l0.24807,0a6.30107,6.30107 0 0 0 -0.79384,2.92727a12.13081,12.13081 0 0 0 0.22327,3.00169c-0.29769,0 0,-0.37211 -0.24807,-0.47134c0,0.86826 -0.3473,1.04191 -0.94268,0.74422a0.42173,0.42173 0 0 1 -0.27288,-0.42173a11.56024,11.56024 0 0 1 0,-1.86055c0.3473,0 0.3473,0.19846 0.29769,0.44653c0.52096,-1.26518 0.69461,-2.62958 1.21556,-3.89476c-0.04961,-0.17365 -0.04961,-0.52096 0.27288,-0.47134z" class="cls-17"/>
   <path stroke="null" id="svg_20" d="m13.19445,77.56311a6.67319,6.67319 0 0 0 -0.81864,2.25747a20.8382,20.8382 0 0 1 -0.84345,2.48074c-0.12404,-0.29769 0,-0.62018 -0.3225,-0.76903l0,-1.28998c0.54576,0 0,0.47134 0.3473,0.59538c0.3225,-1.06672 0.64499,-2.13343 0.9923,-3.20015c0,-0.14884 0,-0.42173 0.3225,-0.47134l0.3225,0.39692z" class="cls-18"/>
   <path stroke="null" id="svg_21" d="m14.60847,39.68224a4.66379,4.66379 0 0 1 -2.13343,-2.48074a23.02125,23.02125 0 0 0 2.13343,2.48074z" class="cls-19"/>
   <path stroke="null" id="svg_22" d="m0.46827,56.82414a12.00677,12.00677 0 0 1 0,3.77072a23.91432,23.91432 0 0 1 0,-3.77072z" class="cls-20"/>
   <path stroke="null" id="svg_23" d="m4.43745,43.89949l0,0.17365c0,0.76903 -0.47134,1.26518 -0.84345,1.81094l-0.27288,0.42173a0,0 0 1 1 -0.14884,0a11.13851,11.13851 0 0 1 1.26518,-2.40632z" class="cls-10"/>
   <path stroke="null" id="svg_24" d="m11.60678,36.33324a0.91787,0.91787 0 0 1 0,-0.96749l0.89307,1.78613c-0.49615,0 -0.39692,-0.6698 -0.6698,-0.96749s0,-0.22327 -0.17365,0s-0.02481,0.07442 -0.04961,0.14884z" class="cls-19"/>
   <path stroke="null" id="svg_25" d="m3.19708,46.30581l0.14884,0c-0.29769,0.42173 -0.27288,1.04191 -0.74422,1.38921a4.61417,4.61417 0 0 1 0.59538,-1.38921z" class="cls-21"/>
   <path stroke="null" id="svg_26" d="m5.65301,73.09778a0.54576,0.54576 0 0 1 0.47134,0.57057l-0.47134,-0.57057z" class="cls-7"/>
   <path stroke="null" id="svg_27" d="m63.28056,59.52814a16.4721,16.4721 0 0 0 -17.01786,-16.74498c-2.95208,0 -5.87935,0 -8.43451,0c-3.39861,0.27288 -6.42511,0 -9.42681,0c-1.63729,0 -1.78613,0 -2.3567,1.63729l0,0c-0.19846,0.39692 0,0.52096 0.3473,0.57057a22.8476,22.8476 0 0 1 3.44823,0.64499a2.23266,2.23266 0 0 1 1.71171,1.83575a5.90416,5.90416 0 0 1 0,1.31479q0,10.4191 0,20.8382c0,1.36441 0,2.704 -0.14884,4.06841c0,1.83575 -0.64499,2.48074 -2.48074,2.75362a1.93498,1.93498 0 0 1 -0.54576,0a1.28998,1.28998 0 0 0 -1.3396,0.9923c-0.52096,1.3396 -0.42173,1.48844 0.96749,1.48844c3.07612,0 6.17704,0 9.25315,0a51.47532,51.47532 0 0 0 10.34468,-0.22327a19.27534,19.27534 0 0 0 11.98197,-6.92126a17.51401,17.51401 0 0 0 3.6963,-12.25485zm-7.61587,9.55084a11.78351,11.78351 0 0 1 -12.20523,7.26856a14.38828,14.38828 0 0 1 -3.22496,-0.54576a3.52265,3.52265 0 0 1 -2.82804,-3.74591c0,-4.06841 0,-8.13682 0,-12.40369s0,-8.4097 0,-12.70138c0,-0.94268 0.3225,-1.38921 1.24037,-1.46364a17.86131,17.86131 0 0 1 13.07349,3.00169a13.61925,13.61925 0 0 1 5.13513,8.95546a21.508,21.508 0 0 1 -1.19075,11.63466z" class="cls-22"/>
   <path stroke="null" id="svg_28" d="m91.90828,59.50333a25.35314,25.35314 0 0 0 -2.65439,-0.91787c0.62018,-0.3473 1.11633,-0.57057 1.58767,-0.86826a7.56625,7.56625 0 0 0 3.86995,-7.44221a7.16933,7.16933 0 0 0 -4.96148,-6.4003a14.88443,14.88443 0 0 0 -5.40801,-0.94268c-5.11032,0 -10.22064,0.27288 -15.35577,0c-1.36441,0 -1.41402,0 -1.91017,1.28998l0,0.3225c-0.19846,0.44653 0,0.62018 0.44653,0.69461l2.77843,0.39692a2.10863,2.10863 0 0 1 1.98459,2.23266a6.49953,6.49953 0 0 1 0,0.69461c0,7.02049 0,14.06579 0,21.11108a38.94759,38.94759 0 0 1 -0.24807,5.11032a1.71171,1.71171 0 0 1 -1.36441,1.58767a8.4097,8.4097 0 0 1 -2.05901,0.39692a1.19075,1.19075 0 0 0 -1.28998,0.91787c0,0.27288 -0.19846,0.52096 -0.27288,0.79384a0.52096,0.52096 0 0 0 0.57057,0.69461l6.59876,0a73.85158,73.85158 0 0 0 10.98967,-0.14884a16.96825,16.96825 0 0 0 9.402,-4.16764a9.17873,9.17873 0 0 0 -2.704,-15.35577zm-14.16501,-12.82542c0,-0.76903 0.3225,-1.04191 1.11633,-1.11633a14.88443,14.88443 0 0 1 4.96148,0.3225a6.15223,6.15223 0 0 1 5.11032,6.77242a6.42511,6.42511 0 0 1 -0.96749,3.3738a4.49014,4.49014 0 0 1 -2.80323,1.93498a19.07688,19.07688 0 0 1 -4.11803,0.27288c-0.94268,0 -1.86055,0 -2.80323,0c-0.47134,0 -0.6698,-0.19846 -0.6698,-0.6698c0.07442,-3.72111 0.09923,-7.29337 0.17365,-10.89044zm13.66887,22.94683a7.11972,7.11972 0 0 1 -8.4097,6.77242c-0.64499,0 -1.31479,0 -1.95978,-0.19846a3.52265,3.52265 0 0 1 -3.32419,-3.79553c0,-2.23266 -0.14884,-4.61417 0,-6.49953s0,-3.00169 0,-4.29168c0,-0.37211 0,-0.74422 0.52096,-0.76903a18.85361,18.85361 0 0 1 9.00508,1.11633a7.44221,7.44221 0 0 1 4.24206,7.66548l-0.07442,0z" class="cls-22"/>
   <path stroke="null" id="svg_29" d="m79.28132,30.60274a47.13403,47.13403 0 0 0 -5.28397,-0.52096c-0.91787,0 -1.48844,-0.49615 -1.48844,-1.09152s0.49615,-0.96749 1.48844,-1.04191l0,0a6.053,6.053 0 0 0 6.02819,-7.02049c-0.12404,-0.86826 -0.12404,-0.86826 0.74422,-0.76903a1.46364,1.46364 0 0 0 1.66209,-0.64499a2.23266,2.23266 0 0 0 0.24807,-2.08382a3.29938,3.29938 0 0 1 -2.48074,0.84345a6.7228,6.7228 0 0 1 -2.10863,-0.49615a7.83913,7.83913 0 0 0 -7.16933,0.42173a4.96148,4.96148 0 0 0 -2.72881,4.96148a4.53975,4.53975 0 0 0 3.0265,4.46533c0.59538,0.24807 0.47134,0.47134 0,0.71941l-1.78613,1.11633c-0.59538,0.3473 -0.54576,0.62018 -0.3473,1.11633a3.20015,3.20015 0 0 0 1.46364,1.56287c0.22327,0.12404 0.49615,0.14884 0.64499,0.37211s-0.3225,0.3225 -0.52096,0.47134a19.84591,19.84591 0 0 0 -2.23266,1.81094a2.65439,2.65439 0 0 0 -0.71941,3.00169a4.78782,4.78782 0 0 0 3.57226,3.17534a9.62526,9.62526 0 0 0 9.62526,-2.704a5.90416,5.90416 0 0 0 1.46364,-2.48074a3.84514,3.84514 0 0 0 -3.10092,-5.18474zm-8.21124,-8.58335a8.53374,8.53374 0 0 1 0,-1.11633a2.704,2.704 0 0 1 2.20786,-2.33189a3.27457,3.27457 0 0 1 3.22496,1.48844a5.3832,5.3832 0 0 1 0.17365,4.96148a2.77843,2.77843 0 0 1 -4.61417,0.29769a5.13513,5.13513 0 0 1 -0.9923,-3.349l0,0.04961zm7.44221,16.49691a6.69799,6.69799 0 0 1 -6.77242,0a3.20015,3.20015 0 0 1 -1.46364,-3.20015a3.72111,3.72111 0 0 1 3.0265,-2.48074a14.41309,14.41309 0 0 1 4.24206,0.39692a2.60478,2.60478 0 0 1 2.25747,2.03421a3.07612,3.07612 0 0 1 -1.16595,3.20015l-0.12404,0.04961z" class="cls-1"/>
   <path stroke="null" id="svg_30" d="m94.48824,17.30598a8.33528,8.33528 0 0 0 -7.21895,1.61248a7.44221,7.44221 0 0 0 -2.48074,8.01278a6.54915,6.54915 0 0 0 4.0436,4.96148a7.86394,7.86394 0 0 0 10.86563,-7.44221a6.84684,6.84684 0 0 0 -5.20955,-7.14453zm1.73652,10.81602a3.54746,3.54746 0 0 1 -5.60647,2.25747a6.47473,6.47473 0 0 1 -2.704,-4.49014a9.17873,9.17873 0 0 1 -0.17365,-2.0094a7.96317,7.96317 0 0 1 0.14884,-1.88536a3.67149,3.67149 0 0 1 2.48074,-3.10092a4.0188,4.0188 0 0 1 4.11803,1.06672a8.31047,8.31047 0 0 1 2.0094,4.96148a10.0966,10.0966 0 0 1 -0.17365,3.22496l-0.09923,-0.02481z" class="cls-1"/>
   <path stroke="null" id="svg_31" d="m41.35083,17.57886a8.01278,8.01278 0 0 0 -8.63297,13.02388a6.62357,6.62357 0 0 0 2.48074,1.58767a7.86394,7.86394 0 0 0 10.54314,-7.44221a6.84684,6.84684 0 0 0 -4.39091,-7.16933zm0.89307,10.54314a3.54746,3.54746 0 0 1 -5.53205,2.25747a5.73051,5.73051 0 0 1 -2.48074,-3.29938a9.92295,9.92295 0 0 1 -0.24807,-5.45762a3.62188,3.62188 0 0 1 5.90416,-2.15824a6.69799,6.69799 0 0 1 2.48074,5.11032a8.38489,8.38489 0 0 1 0,1.11633a7.86394,7.86394 0 0 1 -0.22327,2.48074l0.09923,-0.04961z" class="cls-1"/>
   <path stroke="null" id="svg_32" d="m11.73082,73.79239l-0.24807,0s0,-0.17365 0,-0.27288l0,-0.42173l0,0c0.14884,0 0.19846,0 0.27288,0.14884l-0.02481,0.54576z" class="cls-23"/>
   <path stroke="null" id="svg_33" d="m11.45794,73.37066l0,0.27288c0,0.22327 0,0.49615 -0.14884,0.71941c0.04961,-0.3225 -0.09923,-0.6698 0.14884,-0.9923z" class="cls-6"/>
   <path stroke="null" id="svg_34" d="m3.6188,45.88408c0,-0.69461 0.69461,-1.16595 0.84345,-1.81094c0.27288,0.19846 0.29769,0.52096 0.39692,0.81864c2.25747,6.7228 4.46533,13.4456 6.74761,20.1684c0.17365,0.54576 0,1.11633 0.29769,1.61248l0,0.9923c0,0.74422 -0.22327,1.48844 -0.14884,2.23266c-0.74422,-1.83575 -1.31479,-3.74591 -1.95978,-5.63128c-1.98459,-5.90416 -3.96918,-11.85793 -5.92896,-17.78689c-0.04961,-0.22327 -0.07442,-0.47134 -0.24807,-0.59538z" class="cls-21"/>
   <path stroke="null" id="svg_35" d="m11.73082,73.09778l-0.27288,-0.14884c0,-0.22327 0,-0.52096 0.27288,-0.57057l0,0.71941z" class="cls-24"/>
   <path stroke="null" id="svg_36" d="m11.87966,59.47853l0,-9.02989a5.13513,5.13513 0 0 1 2.25747,-0.54576c1.61248,-0.29769 3.24977,-0.49615 4.96148,-0.74422a0.91787,0.91787 0 0 0 0.52096,-0.14884c0.69461,-0.64499 0.76903,0 0.9923,0.42173a43.38811,43.38811 0 0 1 1.58767,5.20955c-0.52096,0.47134 -1.19075,0.29769 -1.78613,0.3473a7.76471,7.76471 0 0 1 -2.0094,0c-0.49615,0 -0.89307,0.29769 -1.31479,0.12404s-1.06672,0 -1.58767,-0.19846a1.91017,1.91017 0 0 0 -0.74422,0c-0.29769,0 -0.62018,0.54576 -0.91787,0c0,0 0,0 0,0c-0.47134,0.49615 -0.76903,0 -1.06672,-0.22327s0,-0.19846 -0.27288,-0.22327s-0.12404,0.37211 -0.12404,0.57057l0,3.49784c0,0.27288 0,0.57057 -0.17365,0.79384l-0.3225,0.14884z" class="cls-25"/>
   <path stroke="null" id="svg_37" d="m12.02851,59.47853l0,-4.61417c0,-0.19846 0,-0.47134 0.17365,-0.52096s0.37211,0.14884 0.49615,0.3225c0.47134,0.6698 0.64499,0.6698 1.14114,0c0,0.59538 0.39692,0.57057 0.59538,0.39692a0.9923,0.9923 0 0 1 0.96749,-0.17365c0.57057,0.22327 1.16595,0 1.73652,0.22327s0.59538,0 0.39692,-0.54576c0.3225,0.49615 0.6698,0.37211 1.11633,0.3473l2.48074,-0.12404c0.3473,0 0.69461,0 1.04191,-0.14884l0.29769,2.65439c0,1.51325 0,1.46364 -1.46364,1.6869c-2.48074,0.37211 -4.96148,0.81864 -7.44221,1.21556a2.85285,2.85285 0 0 1 -1.43883,0l-0.09923,-0.71941z" class="cls-26"/>
   <path stroke="null" id="svg_38" d="m11.75563,38.86359c-0.27288,-0.54576 0,-1.11633 0,-1.6869c0.14884,0.54576 -0.07442,1.14114 0,1.6869z" class="cls-19"/>
  </g>
 </g>
</svg>