<?xml version="1.0" encoding="UTF-8"?>
<svg width="400" height="400" version="1.1" xmlns="http://www.w3.org/2000/svg" xmlns:cc="http://creativecommons.org/ns#" xmlns:dc="http://purl.org/dc/elements/1.1/" xmlns:rdf="http://www.w3.org/1999/02/22-rdf-syntax-ns#"><metadata><rdf:RDF><cc:Work rdf:about=""><dc:format>image/svg+xml</dc:format><dc:type rdf:resource="http://purl.org/dc/dcmitype/StillImage"/><dc:title/></cc:Work></rdf:RDF></metadata><rect width="400" height="400" rx="1.4381" fill="#00ffd6" fill-rule="evenodd"/><g transform="matrix(.99975 0 0 1 .049994 .049994)"><title>Layer 1</title><g transform="matrix(.1 0 0 -.1 0 400)"><path d="m0 3090c0-500 3-910 6-910 4 0 66 31 138 69s203 106 291 151c159 82 318 165 510 265 55 29 177 92 270 140 94 48 211 109 260 135 274 144 507 262 510 259 2-2 6-456 9-1009 6-947 12-1369 20-1378 2-2 37 14 77 36 70 37 182 95 544 282 88 45 196 102 240 125s175 91 290 150c116 59 224 116 240 125 33 19 459 238 542 279l53 26v2165h-4e3z" fill="#ff59d7" stroke="#a54848"/></g></g></svg>
