<svg id="wave" style="transform:rotate(180deg); transition: 0.3s" viewBox="0 0 1440 490" version="1.1" xmlns="http://www.w3.org/2000/svg"><defs><linearGradient id="sw-gradient-0" x1="0" x2="0" y1="1" y2="0"><stop stop-color="#d5fff5" offset="0%"></stop><stop stop-color="#d5fff5" offset="100%"></stop></linearGradient></defs><path style="transform:translate(0, 0px); opacity:1" fill="url(#sw-gradient-0)" d="M0,49L1440,343L2880,147L4320,245L5760,343L7200,196L8640,441L10080,147L11520,245L12960,0L14400,0L15840,392L17280,294L18720,294L20160,147L21600,392L23040,294L24480,392L25920,441L27360,196L28800,98L30240,49L31680,98L33120,147L34560,98L34560,490L33120,490L31680,490L30240,490L28800,490L27360,490L25920,490L24480,490L23040,490L21600,490L20160,490L18720,490L17280,490L15840,490L14400,490L12960,490L11520,490L10080,490L8640,490L7200,490L5760,490L4320,490L2880,490L1440,490L0,490Z"></path></svg>