<svg height="100%" width="100%" id="svg" viewBox="0 0 1440 700" xmlns="http://www.w3.org/2000/svg" class="transition duration-300 ease-in-out delay-150"><path d="M 0,700 C 0,700 0,350 0,350 C 43.85458608617738,348.34060479636776 87.70917217235476,346.68120959273546 133,380 C 178.29082782764524,413.31879040726454 225.01789739675837,481.61576642542576 266,467 C 306.98210260324163,452.38423357457424 342.2192382406117,354.85572470556156 381,344 C 419.7807617593883,333.14427529443844 462.1051496407948,408.9613347523282 513,438 C 563.8948503592052,467.0386652476718 623.3601631962091,449.2989362851258 669,412 C 714.6398368037909,374.7010637148742 746.4541975743688,317.8429201071683 781,301 C 815.5458024256312,284.1570798928317 852.8230465063157,307.3293832862008 895,366 C 937.1769534936843,424.6706167137992 984.2536164003689,518.8395467480286 1031,480 C 1077.7463835996311,441.1604532519713 1124.1624878922082,269.31242972168457 1175,254 C 1225.8375121077918,238.68757027831543 1281.0964320307976,379.910734365233 1326,422 C 1370.9035679692024,464.089265634767 1405.4517839846012,407.0446328173835 1440,350 C 1440,350 1440,700 1440,700 Z" stroke="none" stroke-width="0" fill="#ffddd5" class="transition-all duration-300 ease-in-out delay-150" transform="rotate(-180 720 350)"></path></svg>